/* XPM */
static char *_b152d8f9849402cf765ff8d83be2d0eijPOhKmgIZeMEvkB[] = {
/* columns rows colors chars-per-pixel */
"64 64 35 1 ",
"  c black",
". c #0B0B0B",
"X c gray6",
"o c #101010",
"O c #161616",
"+ c gray12",
"@ c #202020",
"# c #2F2F2F",
"$ c gray19",
"% c #373737",
"& c gray22",
"* c #3F3F3F",
"= c gray25",
"- c #4E4E4E",
"; c gray35",
": c #5F5F5F",
"> c #606060",
", c #646464",
"< c #6F6F6F",
"1 c gray44",
"2 c #7B7B7B",
"3 c gray50",
"4 c #868686",
"5 c gray53",
"6 c gray56",
"7 c gray57",
"8 c #9D9D9D",
"9 c #9F9F9F",
"0 c gray66",
"q c #AFAFAF",
"w c gray70",
"e c gray75",
"r c gray81",
"t c #DFDFDF",
"y c white",
/* pixels */
"yyyyyyyyyyyyyyyyyyyyyyyyyyyyyyyyyyyyyyyyyyyyyyyyyyyyyyyyyyyyyyyy",
"yyyyyyyyyyyyyyyyyyyyyyyyyyyyyyyyyyyyyyyyyyyyyyyyyyyyyyyyyyyyyyyy",
"yyyyyyyyyyyyyyyyyyyyyyyyyyyyyyyyyyyyyyyyyyyyyyyyyyyyyyyyyyyyyyyy",
"yyyyyyyyyyyyyyyyyyyyyyyyyyyyyyyyyyyyyyyyyyyyyyyyyyyyyyyyyyyyyyyy",
"yyyyyyyyyyyyyyyyyyyyyyyyyyyyyyyyyyyyyyyyyyyyyyyyyyyyyyyyyyyyyyyy",
"yyyyyyyyyyyyyyyyyyyyyyyyyyyyyyyyyyyyyyyyyyyyyyyyyyyyyyyyyyyyyyyy",
"yyyyyyyyyyyyyyyyyyyyyyyyyyyyyyyyyyyyyyyyyyyyyyyyyyyyyyyyyyyyyyyy",
"yyyyyyyyyyyyyyyyyyyyyyyyyyyyyyyyyyyyyyyyyyyyyyyyyyyyyyyyyyyyyyyy",
"yyyyyyyyyyyyyyyyyyyyyyyyyyyyyyyyyyyyyyyyyyyyyyyyyyyyyyyyyyyyyyyy",
"yyyyyyyyyyyyyyyyyyyyyyyyyyyyyyyyyyyyyyyyyyyyyyyyyyyyyyyyyyyyyyyy",
"yyyyyyyyyyyyyyyyyyyyyyyyyyyyyyyyyyyyyyyyyyyyyyyyyyyyyyyyyyyyyyyy",
"yyyyyyyyyyyyyyyyyyyyyyyyyyyyyyyyyyyyyyyyyyyyyyyyyyyyyyyyyyyyyyyy",
"yyyyyyyyyyyyyyyyyyyyyyyyyyyyyyyyyyyyyyyyyyyyyyyyyyyyyyyyyyyyyyyy",
"yyyyyyyyyyyyyyyyyyyyyyyyyyyyyyyyyyyyyyyyyyyyyyyyyyyyyyyyyyyyyyyy",
"yyyyyyyyyyyyyyyyyyyyyyyyyyyyyyyyyyyyyyyyyyyyyyyyyyyyyyyyyyyyyyyy",
"yyyyyyyyyyyyyyyyyyyyyyyyyyyt7==o o==7tyyyyyyyyyyyyyyyyyyyyyyyyyy",
"yyyyyyyyyyyyyyyyyyyyyyyyy7+           #7yyyyyyyyyyyyyyyyyyyyyyyy",
"yyyyyyyyyyyyyyyyyyyyyyye@  .=240w043=.  $eyyyyyyyyyyyyyyyyyyyyyy",
"yyyyyyyyyyyyyyyyyyyyyy>  O2wwwwwwwwwww2O  >yyyyyyyyyyyyyyyyyyyyy",
"yyyyyyyyyyyyyyyyyyyyy> .;wwwwwwwwwwwwwww;  >yyyyyyyyyyyyyyyyyyyy",
"yyyyyyyyyyyyyyyyyyyy= .7wwwwwwwwwwwwwwwww7. =yyyyyyyyyyyyyyyyyyy",
"yyyyyyyyyyyyyyyyyyy< .7wwwwwwwwwwwwwwwwwww7. <yyyyyyyyyyyyyyyyyy",
"yyyyyyyyyyyyyyyyyy9  7wwwwwwwwwwwwwwwwwwwww7  qyyyyyyyyyyyyyyyyy",
"yyyyyyyyyyyyyyyyyto 1wwwwwwwwwwwwwwwwwwwwwww, otyyyyyyyyyyyyyyyy",
"yyyyyyyyyyyyyyyyy: %wwwwwwwwwwwwwwwwwwwwwwwww& >yyyyyyyyyyyyyyyy",
"yyyyyyyyyyyyyyyyt  9wwwwwwwwwwwwwwwwwwwwwwwww9  tyyyyyyyyyyyyyyy",
"yyyyyyyyyyyyyyyy: =wwwwwwwwwwwwwwwwwwwwwwwwwww= :yyyyyyyyyyyyyyy",
"yyyyyyyyyyyyyyyyo 9wwwwwwwwwwwwwwwwwwwwwwwwwww9 Xyyyyyyyyyyyyyyy",
"yyyyyyyyyyyyyyyr OwwwwwwwwwwwwwwwwwwwwwwwwwwwwwO ryyyyyyyyyyyyyy",
"yyyyyyyyyyyyyyy3 -wwwwwwwwwwwwwwwwwwwwwwwwwwwww= 6yyyyyyyyyyyyyy",
"yyyyyyyyyyyyyyy* 2wwwwwwwwwwwwwwwwwwwwwwwwwwwww2 *yyyyyyyyyyyyyy",
"yyyyyyyyyyyyyyy* 4wwwwwwwwwwwwwwwwwwwwwwwwwwwww4 *yyyyyyyyyyyyyy",
"yyyyyyyyyyyyyyy@ 9wwwwwwwwwwwwwwwwwwwwwwwwwwwww9 @yyyyyyyyyyyyyy",
"yyyyyyyyyyyyyyy  wwwwwwwwwwwwwwwwwwwwwwwwwwwwwww  yyyyyyyyyyyyyy",
"yyyyyyyyyyyyyyy  wwwwwwwwwwwwwwwwwwwwwwwwwwwwwww  yyyyyyyyyyyyyy",
"yyyyyyyyyyyyyyy+ 9wwwwwwwwwwwwwwwwwwwwwwwwwwwww9 +yyyyyyyyyyyyyy",
"yyyyyyyyyyyyyyy* 4wwwwwwwwwwwwwwwwwwwwwwwwwwwww4 *yyyyyyyyyyyyyy",
"yyyyyyyyyyyyyyy* 2wwwwwwwwwwwwwwwwwwwwwwwwwwwww3 *yyyyyyyyyyyyyy",
"yyyyyyyyyyyyyyy3 -wwwwwwwwwwwwwwwwwwwwwwwwwwwww= 6yyyyyyyyyyyyyy",
"yyyyyyyyyyyyyyyr OwwwwwwwwwwwwwwwwwwwwwwwwwwwwwO ryyyyyyyyyyyyyy",
"yyyyyyyyyyyyyyyyX 9wwwwwwwwwwwwwwwwwwwwwwwwwww9 Xyyyyyyyyyyyyyyy",
"yyyyyyyyyyyyyyyy: =wwwwwwwwwwwwwwwwwwwwwwwwwww= :yyyyyyyyyyyyyyy",
"yyyyyyyyyyyyyyyyt  9wwwwwwwwwwwwwwwwwwwwwwwww9  tyyyyyyyyyyyyyyy",
"yyyyyyyyyyyyyyyyy: &wwwwwwwwwwwwwwwwwwwwwwwww& :yyyyyyyyyyyyyyyy",
"yyyyyyyyyyyyyyyyytX <wwwwwwwwwwwwwwwwwwwwwww, Xtyyyyyyyyyyyyyyyy",
"yyyyyyyyyyyyyyyyyyq  7wwwwwwwwwwwwwwwwwwwww7  qyyyyyyyyyyyyyyyyy",
"yyyyyyyyyyyyyyyyyyy< .7wwwwwwwwwwwwwwwwwww7. <yyyyyyyyyyyyyyyyyy",
"yyyyyyyyyyyyyyyyyyyy* .7wwwwwwwwwwwwwwwww7. -yyyyyyyyyyyyyyyyyyy",
"yyyyyyyyyyyyyyyyyyyyy:  ;wwwwwwwwwwwwwww;  :yyyyyyyyyyyyyyyyyyyy",
"yyyyyyyyyyyyyyyyyyyyyy:  O3wwwwwwwwwww3O  <yyyyyyyyyyyyyyyyyyyyy",
"yyyyyyyyyyyyyyyyyyyyyyye#  .=340w043=.  $eyyyyyyyyyyyyyyyyyyyyyy",
"yyyyyyyyyyyyyyyyyyyyyyyyy6#           #9yyyyyyyyyyyyyyyyyyyyyyyy",
"yyyyyyyyyyyyyyyyyyyyyyyyyyyt6**X X**6tyyyyyyyyyyyyyyyyyyyyyyyyyy",
"yyyyyyyyyyyyyyyyyyyyyyyyyyyyyyyyyyyyyyyyyyyyyyyyyyyyyyyyyyyyyyyy",
"yyyyyyyyyyyyyyyyyyyyyyyyyyyyyyyyyyyyyyyyyyyyyyyyyyyyyyyyyyyyyyyy",
"yyyyyyyyyyyyyyyyyyyyyyyyyyyyyyyyyyyyyyyyyyyyyyyyyyyyyyyyyyyyyyyy",
"yyyyyyyyyyyyyyyyyyyyyyyyyyyyyyyyyyyyyyyyyyyyyyyyyyyyyyyyyyyyyyyy",
"yyyyyyyyyyyyyyyyyyyyyyyyyyyyyyyyyyyyyyyyyyyyyyyyyyyyyyyyyyyyyyyy",
"yyyyyyyyyyyyyyyyyyyyyyyyyyyyyyyyyyyyyyyyyyyyyyyyyyyyyyyyyyyyyyyy",
"yyyyyyyyyyyyyyyyyyyyyyyyyyyyyyyyyyyyyyyyyyyyyyyyyyyyyyyyyyyyyyyy",
"yyyyyyyyyyyyyyyyyyyyyyyyyyyyyyyyyyyyyyyyyyyyyyyyyyyyyyyyyyyyyyyy",
"yyyyyyyyyyyyyyyyyyyyyyyyyyyyyyyyyyyyyyyyyyyyyyyyyyyyyyyyyyyyyyyy",
"yyyyyyyyyyyyyyyyyyyyyyyyyyyyyyyyyyyyyyyyyyyyyyyyyyyyyyyyyyyyyyyy",
"yyyyyyyyyyyyyyyyyyyyyyyyyyyyyyyyyyyyyyyyyyyyyyyyyyyyyyyyyyyyyyyy"
};
